lc = 0.037;

nb_pts_x = 70;
nb_pts_y = 17;
nb_pts_z = 17;


Point(1) = {-1.500000000000000, 0.000000000000000, -0.400000000000000, lc};
Point(2) = {-1.484924623115578, 0.000000000000000, -0.400000000000000, lc};
Point(3) = {-1.469849246231156, 0.000000000000000, -0.400000000000000, lc};
Point(4) = {-1.454773869346734, 0.000000000000000, -0.400000000000000, lc};
Point(5) = {-1.439698492462312, 0.000000000000000, -0.400000000000000, lc};
Point(6) = {-1.424623115577889, 0.000000000000000, -0.400000000000000, lc};
Point(7) = {-1.409547738693467, 0.000000000000000, -0.400000000000000, lc};
Point(8) = {-1.394472361809045, 0.000000000000000, -0.400000000000000, lc};
Point(9) = {-1.379396984924623, 0.000000000000000, -0.400000000000000, lc};
Point(10) = {-1.364321608040201, 0.000000000000000, -0.400000000000000, lc};
Point(11) = {-1.349246231155779, 0.000000000000000, -0.400000000000000, lc};
Point(12) = {-1.334170854271357, 0.000000000000000, -0.400000000000000, lc};
Point(13) = {-1.319095477386935, 0.000000000000000, -0.400000000000000, lc};
Point(14) = {-1.304020100502512, 0.000000000000000, -0.400000000000000, lc};
Point(15) = {-1.288944723618090, 0.000000000000000, -0.400000000000000, lc};
Point(16) = {-1.273869346733668, 0.000000000000000, -0.400000000000000, lc};
Point(17) = {-1.258793969849246, 0.000000000000000, -0.400000000000000, lc};
Point(18) = {-1.243718592964824, 0.000000000000000, -0.400000000000000, lc};
Point(19) = {-1.228643216080402, 0.000000000000000, -0.400000000000000, lc};
Point(20) = {-1.213567839195980, 0.000000000000000, -0.400000000000000, lc};
Point(21) = {-1.198492462311558, 0.000000000000000, -0.400000000000000, lc};
Point(22) = {-1.183417085427136, 0.000000000000000, -0.400000000000000, lc};
Point(23) = {-1.168341708542714, 0.000000000000000, -0.400000000000000, lc};
Point(24) = {-1.153266331658291, 0.000000000000000, -0.400000000000000, lc};
Point(25) = {-1.138190954773869, 0.000000000000001, -0.400000000000000, lc};
Point(26) = {-1.123115577889447, 0.000000000000001, -0.400000000000000, lc};
Point(27) = {-1.108040201005025, 0.000000000000003, -0.400000000000000, lc};
Point(28) = {-1.092964824120603, 0.000000000000007, -0.400000000000000, lc};
Point(29) = {-1.077889447236181, 0.000000000000015, -0.400000000000000, lc};
Point(30) = {-1.062814070351759, 0.000000000000034, -0.400000000000000, lc};
Point(31) = {-1.047738693467337, 0.000000000000075, -0.400000000000000, lc};
Point(32) = {-1.032663316582915, 0.000000000000165, -0.400000000000000, lc};
Point(33) = {-1.017587939698493, 0.000000000000357, -0.400000000000000, lc};
Point(34) = {-1.002512562814070, 0.000000000000765, -0.400000000000000, lc};
Point(35) = {-0.987437185929648, 0.000000000001620, -0.400000000000000, lc};
Point(36) = {-0.972361809045226, 0.000000000003391, -0.400000000000000, lc};
Point(37) = {-0.957286432160804, 0.000000000007018, -0.400000000000000, lc};
Point(38) = {-0.942211055276382, 0.000000000014359, -0.400000000000000, lc};
Point(39) = {-0.927135678391960, 0.000000000029047, -0.400000000000000, lc};
Point(40) = {-0.912060301507538, 0.000000000058095, -0.400000000000000, lc};
Point(41) = {-0.896984924623116, 0.000000000114879, -0.400000000000000, lc};
Point(42) = {-0.881909547738693, 0.000000000224600, -0.400000000000000, lc};
Point(43) = {-0.866834170854271, 0.000000000434152, -0.400000000000000, lc};
Point(44) = {-0.851758793969849, 0.000000000829735, -0.400000000000000, lc};
Point(45) = {-0.836683417085427, 0.000000001567840, -0.400000000000000, lc};
Point(46) = {-0.821608040201005, 0.000000002929064, -0.400000000000000, lc};
Point(47) = {-0.806532663316583, 0.000000005410295, -0.400000000000000, lc};
Point(48) = {-0.791457286432161, 0.000000009880481, -0.400000000000000, lc};
Point(49) = {-0.776381909547739, 0.000000017840219, -0.400000000000000, lc};
Point(50) = {-0.761306532663317, 0.000000031848370, -0.400000000000000, lc};
Point(51) = {-0.746231155778895, 0.000000056213316, -0.400000000000000, lc};
Point(52) = {-0.731155778894472, 0.000000098097099, -0.400000000000000, lc};
Point(53) = {-0.716080402010050, 0.000000169253664, -0.400000000000000, lc};
Point(54) = {-0.701005025125628, 0.000000288725377, -0.400000000000000, lc};
Point(55) = {-0.685929648241206, 0.000000486963931, -0.400000000000000, lc};
Point(56) = {-0.670854271356784, 0.000000812032838, -0.400000000000000, lc};
Point(57) = {-0.655778894472362, 0.000001338798908, -0.400000000000000, lc};
Point(58) = {-0.640703517587940, 0.000002182338263, -0.400000000000000, lc};
Point(59) = {-0.625628140703518, 0.000003517173115, -0.400000000000000, lc};
Point(60) = {-0.610552763819096, 0.000005604416236, -0.400000000000000, lc};
Point(61) = {-0.595477386934673, 0.000008829416024, -0.400000000000000, lc};
Point(62) = {-0.580402010050251, 0.000013753034683, -0.400000000000000, lc};
Point(63) = {-0.565326633165829, 0.000021180199969, -0.400000000000000, lc};
Point(64) = {-0.550251256281407, 0.000032249763496, -0.400000000000000, lc};
Point(65) = {-0.535175879396985, 0.000048549858903, -0.400000000000000, lc};
Point(66) = {-0.520100502512563, 0.000072262730913, -0.400000000000000, lc};
Point(67) = {-0.505025125628141, 0.000106342221440, -0.400000000000000, lc};
Point(68) = {-0.489949748743719, 0.000154725554032, -0.400000000000000, lc};
Point(69) = {-0.474874371859296, 0.000222578558123, -0.400000000000000, lc};
Point(70) = {-0.459798994974874, 0.000316569859146, -0.400000000000000, lc};
Point(71) = {-0.444723618090452, 0.000445164743398, -0.400000000000000, lc};
Point(72) = {-0.429648241206030, 0.000618923424381, -0.400000000000000, lc};
Point(73) = {-0.414572864321608, 0.000850781500919, -0.400000000000000, lc};
Point(74) = {-0.399497487437186, 0.001156282936461, -0.400000000000000, lc};
Point(75) = {-0.384422110552764, 0.001553728583030, -0.400000000000000, lc};
Point(76) = {-0.369346733668342, 0.002064197053988, -0.400000000000000, lc};
Point(77) = {-0.354271356783920, 0.002711390765370, -0.400000000000000, lc};
Point(78) = {-0.339195979899497, 0.003521259496945, -0.400000000000000, lc};
Point(79) = {-0.324120603015075, 0.004521358149534, -0.400000000000000, lc};
Point(80) = {-0.309045226130653, 0.005739905586715, -0.400000000000000, lc};
Point(81) = {-0.293969849246231, 0.007204528236690, -0.400000000000000, lc};
Point(82) = {-0.278894472361809, 0.008940695556443, -0.400000000000000, lc};
Point(83) = {-0.263819095477387, 0.010969883762414, -0.400000000000000, lc};
Point(84) = {-0.248743718592965, 0.013307537689437, -0.400000000000000, lc};
Point(85) = {-0.233668341708543, 0.015960935551550, -0.400000000000000, lc};
Point(86) = {-0.218592964824121, 0.018927094179483, -0.400000000000000, lc};
Point(87) = {-0.203517587939699, 0.022190878847428, -0.400000000000000, lc};
Point(88) = {-0.188442211055276, 0.025723497763989, -0.400000000000000, lc};
Point(89) = {-0.173366834170854, 0.029481562766215, -0.400000000000000, lc};
Point(90) = {-0.158291457286432, 0.033406881794010, -0.400000000000000, lc};
Point(91) = {-0.143216080402010, 0.037427113984398, -0.400000000000000, lc};
Point(92) = {-0.128140703517588, 0.041457365395455, -0.400000000000000, lc};
Point(93) = {-0.113065326633166, 0.045402735410994, -0.400000000000000, lc};
Point(94) = {-0.097989949748744, 0.049161745985299, -0.400000000000000, lc};
Point(95) = {-0.082914572864322, 0.052630505121209, -0.400000000000000, lc};
Point(96) = {-0.067839195979900, 0.055707380573464, -0.400000000000000, lc};
Point(97) = {-0.052763819095477, 0.058297898220710, -0.400000000000000, lc};
Point(98) = {-0.037688442211055, 0.060319539527036, -0.400000000000000, lc};
Point(99) = {-0.022613065326633, 0.061706099824329, -0.400000000000000, lc};
Point(100) = {-0.007537688442211, 0.062411286852553, -0.400000000000000, lc};
Point(101) = {0.007537688442211, 0.062411286852553, -0.400000000000000, lc};
Point(102) = {0.022613065326633, 0.061706099824329, -0.400000000000000, lc};
Point(103) = {0.037688442211055, 0.060319539527036, -0.400000000000000, lc};
Point(104) = {0.052763819095477, 0.058297898220710, -0.400000000000000, lc};
Point(105) = {0.067839195979899, 0.055707380573464, -0.400000000000000, lc};
Point(106) = {0.082914572864321, 0.052630505121209, -0.400000000000000, lc};
Point(107) = {0.097989949748744, 0.049161745985299, -0.400000000000000, lc};
Point(108) = {0.113065326633166, 0.045402735410994, -0.400000000000000, lc};
Point(109) = {0.128140703517588, 0.041457365395455, -0.400000000000000, lc};
Point(110) = {0.143216080402010, 0.037427113984398, -0.400000000000000, lc};
Point(111) = {0.158291457286432, 0.033406881794010, -0.400000000000000, lc};
Point(112) = {0.173366834170854, 0.029481562766215, -0.400000000000000, lc};
Point(113) = {0.188442211055276, 0.025723497763989, -0.400000000000000, lc};
Point(114) = {0.203517587939698, 0.022190878847428, -0.400000000000000, lc};
Point(115) = {0.218592964824120, 0.018927094179483, -0.400000000000000, lc};
Point(116) = {0.233668341708543, 0.015960935551550, -0.400000000000000, lc};
Point(117) = {0.248743718592965, 0.013307537689437, -0.400000000000000, lc};
Point(118) = {0.263819095477387, 0.010969883762414, -0.400000000000000, lc};
Point(119) = {0.278894472361809, 0.008940695556443, -0.400000000000000, lc};
Point(120) = {0.293969849246231, 0.007204528236690, -0.400000000000000, lc};
Point(121) = {0.309045226130653, 0.005739905586715, -0.400000000000000, lc};
Point(122) = {0.324120603015075, 0.004521358149534, -0.400000000000000, lc};
Point(123) = {0.339195979899497, 0.003521259496945, -0.400000000000000, lc};
Point(124) = {0.354271356783920, 0.002711390765370, -0.400000000000000, lc};
Point(125) = {0.369346733668342, 0.002064197053988, -0.400000000000000, lc};
Point(126) = {0.384422110552764, 0.001553728583030, -0.400000000000000, lc};
Point(127) = {0.399497487437186, 0.001156282936461, -0.400000000000000, lc};
Point(128) = {0.414572864321608, 0.000850781500919, -0.400000000000000, lc};
Point(129) = {0.429648241206030, 0.000618923424381, -0.400000000000000, lc};
Point(130) = {0.444723618090452, 0.000445164743398, -0.400000000000000, lc};
Point(131) = {0.459798994974874, 0.000316569859146, -0.400000000000000, lc};
Point(132) = {0.474874371859296, 0.000222578558123, -0.400000000000000, lc};
Point(133) = {0.489949748743719, 0.000154725554032, -0.400000000000000, lc};
Point(134) = {0.505025125628141, 0.000106342221440, -0.400000000000000, lc};
Point(135) = {0.520100502512563, 0.000072262730913, -0.400000000000000, lc};
Point(136) = {0.535175879396985, 0.000048549858903, -0.400000000000000, lc};
Point(137) = {0.550251256281407, 0.000032249763496, -0.400000000000000, lc};
Point(138) = {0.565326633165829, 0.000021180199969, -0.400000000000000, lc};
Point(139) = {0.580402010050251, 0.000013753034683, -0.400000000000000, lc};
Point(140) = {0.595477386934673, 0.000008829416024, -0.400000000000000, lc};
Point(141) = {0.610552763819095, 0.000005604416236, -0.400000000000000, lc};
Point(142) = {0.625628140703518, 0.000003517173115, -0.400000000000000, lc};
Point(143) = {0.640703517587939, 0.000002182338263, -0.400000000000000, lc};
Point(144) = {0.655778894472362, 0.000001338798908, -0.400000000000000, lc};
Point(145) = {0.670854271356784, 0.000000812032838, -0.400000000000000, lc};
Point(146) = {0.685929648241206, 0.000000486963931, -0.400000000000000, lc};
Point(147) = {0.701005025125628, 0.000000288725377, -0.400000000000000, lc};
Point(148) = {0.716080402010050, 0.000000169253664, -0.400000000000000, lc};
Point(149) = {0.731155778894472, 0.000000098097099, -0.400000000000000, lc};
Point(150) = {0.746231155778895, 0.000000056213316, -0.400000000000000, lc};
Point(151) = {0.761306532663316, 0.000000031848370, -0.400000000000000, lc};
Point(152) = {0.776381909547739, 0.000000017840219, -0.400000000000000, lc};
Point(153) = {0.791457286432161, 0.000000009880481, -0.400000000000000, lc};
Point(154) = {0.806532663316583, 0.000000005410295, -0.400000000000000, lc};
Point(155) = {0.821608040201005, 0.000000002929064, -0.400000000000000, lc};
Point(156) = {0.836683417085427, 0.000000001567840, -0.400000000000000, lc};
Point(157) = {0.851758793969849, 0.000000000829735, -0.400000000000000, lc};
Point(158) = {0.866834170854271, 0.000000000434152, -0.400000000000000, lc};
Point(159) = {0.881909547738693, 0.000000000224600, -0.400000000000000, lc};
Point(160) = {0.896984924623116, 0.000000000114879, -0.400000000000000, lc};
Point(161) = {0.912060301507537, 0.000000000058095, -0.400000000000000, lc};
Point(162) = {0.927135678391960, 0.000000000029047, -0.400000000000000, lc};
Point(163) = {0.942211055276382, 0.000000000014359, -0.400000000000000, lc};
Point(164) = {0.957286432160804, 0.000000000007018, -0.400000000000000, lc};
Point(165) = {0.972361809045226, 0.000000000003391, -0.400000000000000, lc};
Point(166) = {0.987437185929648, 0.000000000001620, -0.400000000000000, lc};
Point(167) = {1.002512562814070, 0.000000000000765, -0.400000000000000, lc};
Point(168) = {1.017587939698492, 0.000000000000357, -0.400000000000000, lc};
Point(169) = {1.032663316582914, 0.000000000000165, -0.400000000000000, lc};
Point(170) = {1.047738693467337, 0.000000000000075, -0.400000000000000, lc};
Point(171) = {1.062814070351759, 0.000000000000034, -0.400000000000000, lc};
Point(172) = {1.077889447236181, 0.000000000000015, -0.400000000000000, lc};
Point(173) = {1.092964824120603, 0.000000000000007, -0.400000000000000, lc};
Point(174) = {1.108040201005025, 0.000000000000003, -0.400000000000000, lc};
Point(175) = {1.123115577889447, 0.000000000000001, -0.400000000000000, lc};
Point(176) = {1.138190954773869, 0.000000000000001, -0.400000000000000, lc};
Point(177) = {1.153266331658291, 0.000000000000000, -0.400000000000000, lc};
Point(178) = {1.168341708542713, 0.000000000000000, -0.400000000000000, lc};
Point(179) = {1.183417085427136, 0.000000000000000, -0.400000000000000, lc};
Point(180) = {1.198492462311558, 0.000000000000000, -0.400000000000000, lc};
Point(181) = {1.213567839195980, 0.000000000000000, -0.400000000000000, lc};
Point(182) = {1.228643216080402, 0.000000000000000, -0.400000000000000, lc};
Point(183) = {1.243718592964824, 0.000000000000000, -0.400000000000000, lc};
Point(184) = {1.258793969849246, 0.000000000000000, -0.400000000000000, lc};
Point(185) = {1.273869346733668, 0.000000000000000, -0.400000000000000, lc};
Point(186) = {1.288944723618090, 0.000000000000000, -0.400000000000000, lc};
Point(187) = {1.304020100502512, 0.000000000000000, -0.400000000000000, lc};
Point(188) = {1.319095477386934, 0.000000000000000, -0.400000000000000, lc};
Point(189) = {1.334170854271357, 0.000000000000000, -0.400000000000000, lc};
Point(190) = {1.349246231155779, 0.000000000000000, -0.400000000000000, lc};
Point(191) = {1.364321608040201, 0.000000000000000, -0.400000000000000, lc};
Point(192) = {1.379396984924623, 0.000000000000000, -0.400000000000000, lc};
Point(193) = {1.394472361809045, 0.000000000000000, -0.400000000000000, lc};
Point(194) = {1.409547738693467, 0.000000000000000, -0.400000000000000, lc};
Point(195) = {1.424623115577889, 0.000000000000000, -0.400000000000000, lc};
Point(196) = {1.439698492462311, 0.000000000000000, -0.400000000000000, lc};
Point(197) = {1.454773869346734, 0.000000000000000, -0.400000000000000, lc};
Point(198) = {1.469849246231156, 0.000000000000000, -0.400000000000000, lc};
Point(199) = {1.484924623115578, 0.000000000000000, -0.400000000000000, lc};
Point(200) = {1.500000000000000, 0.000000000000000, -0.400000000000000, lc};
Point(201) = {-1.500000000000000, 0.000000000000000, 0.400000000000000, lc};
Point(202) = {-1.484924623115578, 0.000000000000000, 0.400000000000000, lc};
Point(203) = {-1.469849246231156, 0.000000000000000, 0.400000000000000, lc};
Point(204) = {-1.454773869346734, 0.000000000000000, 0.400000000000000, lc};
Point(205) = {-1.439698492462312, 0.000000000000000, 0.400000000000000, lc};
Point(206) = {-1.424623115577889, 0.000000000000000, 0.400000000000000, lc};
Point(207) = {-1.409547738693467, 0.000000000000000, 0.400000000000000, lc};
Point(208) = {-1.394472361809045, 0.000000000000000, 0.400000000000000, lc};
Point(209) = {-1.379396984924623, 0.000000000000000, 0.400000000000000, lc};
Point(210) = {-1.364321608040201, 0.000000000000000, 0.400000000000000, lc};
Point(211) = {-1.349246231155779, 0.000000000000000, 0.400000000000000, lc};
Point(212) = {-1.334170854271357, 0.000000000000000, 0.400000000000000, lc};
Point(213) = {-1.319095477386935, 0.000000000000000, 0.400000000000000, lc};
Point(214) = {-1.304020100502512, 0.000000000000000, 0.400000000000000, lc};
Point(215) = {-1.288944723618090, 0.000000000000000, 0.400000000000000, lc};
Point(216) = {-1.273869346733668, 0.000000000000000, 0.400000000000000, lc};
Point(217) = {-1.258793969849246, 0.000000000000000, 0.400000000000000, lc};
Point(218) = {-1.243718592964824, 0.000000000000000, 0.400000000000000, lc};
Point(219) = {-1.228643216080402, 0.000000000000000, 0.400000000000000, lc};
Point(220) = {-1.213567839195980, 0.000000000000000, 0.400000000000000, lc};
Point(221) = {-1.198492462311558, 0.000000000000000, 0.400000000000000, lc};
Point(222) = {-1.183417085427136, 0.000000000000000, 0.400000000000000, lc};
Point(223) = {-1.168341708542714, 0.000000000000000, 0.400000000000000, lc};
Point(224) = {-1.153266331658291, 0.000000000000000, 0.400000000000000, lc};
Point(225) = {-1.138190954773869, 0.000000000000001, 0.400000000000000, lc};
Point(226) = {-1.123115577889447, 0.000000000000001, 0.400000000000000, lc};
Point(227) = {-1.108040201005025, 0.000000000000003, 0.400000000000000, lc};
Point(228) = {-1.092964824120603, 0.000000000000007, 0.400000000000000, lc};
Point(229) = {-1.077889447236181, 0.000000000000015, 0.400000000000000, lc};
Point(230) = {-1.062814070351759, 0.000000000000034, 0.400000000000000, lc};
Point(231) = {-1.047738693467337, 0.000000000000075, 0.400000000000000, lc};
Point(232) = {-1.032663316582915, 0.000000000000165, 0.400000000000000, lc};
Point(233) = {-1.017587939698493, 0.000000000000357, 0.400000000000000, lc};
Point(234) = {-1.002512562814070, 0.000000000000765, 0.400000000000000, lc};
Point(235) = {-0.987437185929648, 0.000000000001620, 0.400000000000000, lc};
Point(236) = {-0.972361809045226, 0.000000000003391, 0.400000000000000, lc};
Point(237) = {-0.957286432160804, 0.000000000007018, 0.400000000000000, lc};
Point(238) = {-0.942211055276382, 0.000000000014359, 0.400000000000000, lc};
Point(239) = {-0.927135678391960, 0.000000000029047, 0.400000000000000, lc};
Point(240) = {-0.912060301507538, 0.000000000058095, 0.400000000000000, lc};
Point(241) = {-0.896984924623116, 0.000000000114879, 0.400000000000000, lc};
Point(242) = {-0.881909547738693, 0.000000000224600, 0.400000000000000, lc};
Point(243) = {-0.866834170854271, 0.000000000434152, 0.400000000000000, lc};
Point(244) = {-0.851758793969849, 0.000000000829735, 0.400000000000000, lc};
Point(245) = {-0.836683417085427, 0.000000001567840, 0.400000000000000, lc};
Point(246) = {-0.821608040201005, 0.000000002929064, 0.400000000000000, lc};
Point(247) = {-0.806532663316583, 0.000000005410295, 0.400000000000000, lc};
Point(248) = {-0.791457286432161, 0.000000009880481, 0.400000000000000, lc};
Point(249) = {-0.776381909547739, 0.000000017840219, 0.400000000000000, lc};
Point(250) = {-0.761306532663317, 0.000000031848370, 0.400000000000000, lc};
Point(251) = {-0.746231155778895, 0.000000056213316, 0.400000000000000, lc};
Point(252) = {-0.731155778894472, 0.000000098097099, 0.400000000000000, lc};
Point(253) = {-0.716080402010050, 0.000000169253664, 0.400000000000000, lc};
Point(254) = {-0.701005025125628, 0.000000288725377, 0.400000000000000, lc};
Point(255) = {-0.685929648241206, 0.000000486963931, 0.400000000000000, lc};
Point(256) = {-0.670854271356784, 0.000000812032838, 0.400000000000000, lc};
Point(257) = {-0.655778894472362, 0.000001338798908, 0.400000000000000, lc};
Point(258) = {-0.640703517587940, 0.000002182338263, 0.400000000000000, lc};
Point(259) = {-0.625628140703518, 0.000003517173115, 0.400000000000000, lc};
Point(260) = {-0.610552763819096, 0.000005604416236, 0.400000000000000, lc};
Point(261) = {-0.595477386934673, 0.000008829416024, 0.400000000000000, lc};
Point(262) = {-0.580402010050251, 0.000013753034683, 0.400000000000000, lc};
Point(263) = {-0.565326633165829, 0.000021180199969, 0.400000000000000, lc};
Point(264) = {-0.550251256281407, 0.000032249763496, 0.400000000000000, lc};
Point(265) = {-0.535175879396985, 0.000048549858903, 0.400000000000000, lc};
Point(266) = {-0.520100502512563, 0.000072262730913, 0.400000000000000, lc};
Point(267) = {-0.505025125628141, 0.000106342221440, 0.400000000000000, lc};
Point(268) = {-0.489949748743719, 0.000154725554032, 0.400000000000000, lc};
Point(269) = {-0.474874371859296, 0.000222578558123, 0.400000000000000, lc};
Point(270) = {-0.459798994974874, 0.000316569859146, 0.400000000000000, lc};
Point(271) = {-0.444723618090452, 0.000445164743398, 0.400000000000000, lc};
Point(272) = {-0.429648241206030, 0.000618923424381, 0.400000000000000, lc};
Point(273) = {-0.414572864321608, 0.000850781500919, 0.400000000000000, lc};
Point(274) = {-0.399497487437186, 0.001156282936461, 0.400000000000000, lc};
Point(275) = {-0.384422110552764, 0.001553728583030, 0.400000000000000, lc};
Point(276) = {-0.369346733668342, 0.002064197053988, 0.400000000000000, lc};
Point(277) = {-0.354271356783920, 0.002711390765370, 0.400000000000000, lc};
Point(278) = {-0.339195979899497, 0.003521259496945, 0.400000000000000, lc};
Point(279) = {-0.324120603015075, 0.004521358149534, 0.400000000000000, lc};
Point(280) = {-0.309045226130653, 0.005739905586715, 0.400000000000000, lc};
Point(281) = {-0.293969849246231, 0.007204528236690, 0.400000000000000, lc};
Point(282) = {-0.278894472361809, 0.008940695556443, 0.400000000000000, lc};
Point(283) = {-0.263819095477387, 0.010969883762414, 0.400000000000000, lc};
Point(284) = {-0.248743718592965, 0.013307537689437, 0.400000000000000, lc};
Point(285) = {-0.233668341708543, 0.015960935551550, 0.400000000000000, lc};
Point(286) = {-0.218592964824121, 0.018927094179483, 0.400000000000000, lc};
Point(287) = {-0.203517587939699, 0.022190878847428, 0.400000000000000, lc};
Point(288) = {-0.188442211055276, 0.025723497763989, 0.400000000000000, lc};
Point(289) = {-0.173366834170854, 0.029481562766215, 0.400000000000000, lc};
Point(290) = {-0.158291457286432, 0.033406881794010, 0.400000000000000, lc};
Point(291) = {-0.143216080402010, 0.037427113984398, 0.400000000000000, lc};
Point(292) = {-0.128140703517588, 0.041457365395455, 0.400000000000000, lc};
Point(293) = {-0.113065326633166, 0.045402735410994, 0.400000000000000, lc};
Point(294) = {-0.097989949748744, 0.049161745985299, 0.400000000000000, lc};
Point(295) = {-0.082914572864322, 0.052630505121209, 0.400000000000000, lc};
Point(296) = {-0.067839195979900, 0.055707380573464, 0.400000000000000, lc};
Point(297) = {-0.052763819095477, 0.058297898220710, 0.400000000000000, lc};
Point(298) = {-0.037688442211055, 0.060319539527036, 0.400000000000000, lc};
Point(299) = {-0.022613065326633, 0.061706099824329, 0.400000000000000, lc};
Point(300) = {-0.007537688442211, 0.062411286852553, 0.400000000000000, lc};
Point(301) = {0.007537688442211, 0.062411286852553, 0.400000000000000, lc};
Point(302) = {0.022613065326633, 0.061706099824329, 0.400000000000000, lc};
Point(303) = {0.037688442211055, 0.060319539527036, 0.400000000000000, lc};
Point(304) = {0.052763819095477, 0.058297898220710, 0.400000000000000, lc};
Point(305) = {0.067839195979899, 0.055707380573464, 0.400000000000000, lc};
Point(306) = {0.082914572864321, 0.052630505121209, 0.400000000000000, lc};
Point(307) = {0.097989949748744, 0.049161745985299, 0.400000000000000, lc};
Point(308) = {0.113065326633166, 0.045402735410994, 0.400000000000000, lc};
Point(309) = {0.128140703517588, 0.041457365395455, 0.400000000000000, lc};
Point(310) = {0.143216080402010, 0.037427113984398, 0.400000000000000, lc};
Point(311) = {0.158291457286432, 0.033406881794010, 0.400000000000000, lc};
Point(312) = {0.173366834170854, 0.029481562766215, 0.400000000000000, lc};
Point(313) = {0.188442211055276, 0.025723497763989, 0.400000000000000, lc};
Point(314) = {0.203517587939698, 0.022190878847428, 0.400000000000000, lc};
Point(315) = {0.218592964824120, 0.018927094179483, 0.400000000000000, lc};
Point(316) = {0.233668341708543, 0.015960935551550, 0.400000000000000, lc};
Point(317) = {0.248743718592965, 0.013307537689437, 0.400000000000000, lc};
Point(318) = {0.263819095477387, 0.010969883762414, 0.400000000000000, lc};
Point(319) = {0.278894472361809, 0.008940695556443, 0.400000000000000, lc};
Point(320) = {0.293969849246231, 0.007204528236690, 0.400000000000000, lc};
Point(321) = {0.309045226130653, 0.005739905586715, 0.400000000000000, lc};
Point(322) = {0.324120603015075, 0.004521358149534, 0.400000000000000, lc};
Point(323) = {0.339195979899497, 0.003521259496945, 0.400000000000000, lc};
Point(324) = {0.354271356783920, 0.002711390765370, 0.400000000000000, lc};
Point(325) = {0.369346733668342, 0.002064197053988, 0.400000000000000, lc};
Point(326) = {0.384422110552764, 0.001553728583030, 0.400000000000000, lc};
Point(327) = {0.399497487437186, 0.001156282936461, 0.400000000000000, lc};
Point(328) = {0.414572864321608, 0.000850781500919, 0.400000000000000, lc};
Point(329) = {0.429648241206030, 0.000618923424381, 0.400000000000000, lc};
Point(330) = {0.444723618090452, 0.000445164743398, 0.400000000000000, lc};
Point(331) = {0.459798994974874, 0.000316569859146, 0.400000000000000, lc};
Point(332) = {0.474874371859296, 0.000222578558123, 0.400000000000000, lc};
Point(333) = {0.489949748743719, 0.000154725554032, 0.400000000000000, lc};
Point(334) = {0.505025125628141, 0.000106342221440, 0.400000000000000, lc};
Point(335) = {0.520100502512563, 0.000072262730913, 0.400000000000000, lc};
Point(336) = {0.535175879396985, 0.000048549858903, 0.400000000000000, lc};
Point(337) = {0.550251256281407, 0.000032249763496, 0.400000000000000, lc};
Point(338) = {0.565326633165829, 0.000021180199969, 0.400000000000000, lc};
Point(339) = {0.580402010050251, 0.000013753034683, 0.400000000000000, lc};
Point(340) = {0.595477386934673, 0.000008829416024, 0.400000000000000, lc};
Point(341) = {0.610552763819095, 0.000005604416236, 0.400000000000000, lc};
Point(342) = {0.625628140703518, 0.000003517173115, 0.400000000000000, lc};
Point(343) = {0.640703517587939, 0.000002182338263, 0.400000000000000, lc};
Point(344) = {0.655778894472362, 0.000001338798908, 0.400000000000000, lc};
Point(345) = {0.670854271356784, 0.000000812032838, 0.400000000000000, lc};
Point(346) = {0.685929648241206, 0.000000486963931, 0.400000000000000, lc};
Point(347) = {0.701005025125628, 0.000000288725377, 0.400000000000000, lc};
Point(348) = {0.716080402010050, 0.000000169253664, 0.400000000000000, lc};
Point(349) = {0.731155778894472, 0.000000098097099, 0.400000000000000, lc};
Point(350) = {0.746231155778895, 0.000000056213316, 0.400000000000000, lc};
Point(351) = {0.761306532663316, 0.000000031848370, 0.400000000000000, lc};
Point(352) = {0.776381909547739, 0.000000017840219, 0.400000000000000, lc};
Point(353) = {0.791457286432161, 0.000000009880481, 0.400000000000000, lc};
Point(354) = {0.806532663316583, 0.000000005410295, 0.400000000000000, lc};
Point(355) = {0.821608040201005, 0.000000002929064, 0.400000000000000, lc};
Point(356) = {0.836683417085427, 0.000000001567840, 0.400000000000000, lc};
Point(357) = {0.851758793969849, 0.000000000829735, 0.400000000000000, lc};
Point(358) = {0.866834170854271, 0.000000000434152, 0.400000000000000, lc};
Point(359) = {0.881909547738693, 0.000000000224600, 0.400000000000000, lc};
Point(360) = {0.896984924623116, 0.000000000114879, 0.400000000000000, lc};
Point(361) = {0.912060301507537, 0.000000000058095, 0.400000000000000, lc};
Point(362) = {0.927135678391960, 0.000000000029047, 0.400000000000000, lc};
Point(363) = {0.942211055276382, 0.000000000014359, 0.400000000000000, lc};
Point(364) = {0.957286432160804, 0.000000000007018, 0.400000000000000, lc};
Point(365) = {0.972361809045226, 0.000000000003391, 0.400000000000000, lc};
Point(366) = {0.987437185929648, 0.000000000001620, 0.400000000000000, lc};
Point(367) = {1.002512562814070, 0.000000000000765, 0.400000000000000, lc};
Point(368) = {1.017587939698492, 0.000000000000357, 0.400000000000000, lc};
Point(369) = {1.032663316582914, 0.000000000000165, 0.400000000000000, lc};
Point(370) = {1.047738693467337, 0.000000000000075, 0.400000000000000, lc};
Point(371) = {1.062814070351759, 0.000000000000034, 0.400000000000000, lc};
Point(372) = {1.077889447236181, 0.000000000000015, 0.400000000000000, lc};
Point(373) = {1.092964824120603, 0.000000000000007, 0.400000000000000, lc};
Point(374) = {1.108040201005025, 0.000000000000003, 0.400000000000000, lc};
Point(375) = {1.123115577889447, 0.000000000000001, 0.400000000000000, lc};
Point(376) = {1.138190954773869, 0.000000000000001, 0.400000000000000, lc};
Point(377) = {1.153266331658291, 0.000000000000000, 0.400000000000000, lc};
Point(378) = {1.168341708542713, 0.000000000000000, 0.400000000000000, lc};
Point(379) = {1.183417085427136, 0.000000000000000, 0.400000000000000, lc};
Point(380) = {1.198492462311558, 0.000000000000000, 0.400000000000000, lc};
Point(381) = {1.213567839195980, 0.000000000000000, 0.400000000000000, lc};
Point(382) = {1.228643216080402, 0.000000000000000, 0.400000000000000, lc};
Point(383) = {1.243718592964824, 0.000000000000000, 0.400000000000000, lc};
Point(384) = {1.258793969849246, 0.000000000000000, 0.400000000000000, lc};
Point(385) = {1.273869346733668, 0.000000000000000, 0.400000000000000, lc};
Point(386) = {1.288944723618090, 0.000000000000000, 0.400000000000000, lc};
Point(387) = {1.304020100502512, 0.000000000000000, 0.400000000000000, lc};
Point(388) = {1.319095477386934, 0.000000000000000, 0.400000000000000, lc};
Point(389) = {1.334170854271357, 0.000000000000000, 0.400000000000000, lc};
Point(390) = {1.349246231155779, 0.000000000000000, 0.400000000000000, lc};
Point(391) = {1.364321608040201, 0.000000000000000, 0.400000000000000, lc};
Point(392) = {1.379396984924623, 0.000000000000000, 0.400000000000000, lc};
Point(393) = {1.394472361809045, 0.000000000000000, 0.400000000000000, lc};
Point(394) = {1.409547738693467, 0.000000000000000, 0.400000000000000, lc};
Point(395) = {1.424623115577889, 0.000000000000000, 0.400000000000000, lc};
Point(396) = {1.439698492462311, 0.000000000000000, 0.400000000000000, lc};
Point(397) = {1.454773869346734, 0.000000000000000, 0.400000000000000, lc};
Point(398) = {1.469849246231156, 0.000000000000000, 0.400000000000000, lc};
Point(399) = {1.484924623115578, 0.000000000000000, 0.400000000000000, lc};
Point(400) = {1.500000000000000, 0.000000000000000, 0.400000000000000, lc};
Point(401) = {-1.500000000000000, 0.800000000000000, -0.400000000000000, lc};
Point(403) = {-1.500000000000000, 0.800000000000000, 0.400000000000000, lc};
Point(402) = {1.500000000000000, 0.800000000000000, -0.400000000000000, lc};
Point(404) = {1.500000000000000, 0.800000000000000, 0.400000000000000, lc};

Spline(1) = {1:200};
Spline(2) = {201:400};
Line(3)   = {1,201};
Line(4)   = {400,200};
Line(5)   = {401,402};
Line(6)   = {403,404};
Line(7)   = {401,403};
Line(8)   = {404,402};
Line(9)   = {201,403};
Line(10)  = {400,404};
Line(11)  = {200,402};
Line(12)  = {1,401};

Line Loop(1) = {3,2,4,-1};
Line Loop(2) = {6,8,-5,7};
Line Loop(3) = {3,9,-7,-12};
Line Loop(4) = {2,10,-6,-9};
Line Loop(5) = {4,11,-8,-10};
Line Loop(6) = {12,5,-11,-1};

Ruled Surface(1) = {1};
Plane Surface(2) = {2};
Plane Surface(3) = {3};
Plane Surface(4) = {4};
Plane Surface(5) = {5};
Plane Surface(6) = {6};
Surface Loop(1) = {1:6};

Volume(1) = {1};

Transfinite Line(1)  = nb_pts_x;
Transfinite Line(2)  = nb_pts_x;
Transfinite Line(9)  = nb_pts_y;
Transfinite Line(10) = nb_pts_y;
Transfinite Line(11) = nb_pts_y;
Transfinite Line(12) = nb_pts_y;

Transfinite Line(3)  = nb_pts_z;
Transfinite Line(4)  = nb_pts_z;
Transfinite Line(7)  = nb_pts_z;
Transfinite Line(8)  = nb_pts_z;

Physical Surface("Inlet")         = {3};
Physical Surface("Outlet")        = {5};
Physical Surface("SymmetryLeft")  = {6};
Physical Surface("SymmetryRight") = {4};
Physical Surface("Top")           = {2};
Physical Surface("Bottom")        = {1};

Physical Volume("Fluid") = {1};
